<svg xmlns="http://www.w3.org/2000/svg" viewBox="6 8 46 48">
  <defs>
    <linearGradient id="g" x1="0%" y1="0%" x2="100%" y2="100%">
      <stop offset="0%" stop-color="#4f8df6"/>
      <stop offset="100%" stop-color="#2f77ea"/>
    </linearGradient>
  </defs>
  <path fill="url(#g)" d="M47.3 9.2c-4.3 1-7.7 5.7-9.5 10.5-1 2.7-.9 5.1.9 6.4 2.5 1.8 5.7.4 8.2-2.2 3.2-3.3 5.2-8.5 4.6-11.6-.3-1.7-1.8-3.5-4.2-3.1z"/>
  <path fill="url(#g)" d="M27.3 15C15.7 15 6.6 24.2 6.6 35.5c0 11.2 8.7 19.8 19.9 19.8 10.2 0 18.3-6.8 19.5-16.3.3-2.1-.6-4.2-2.4-5.3-2.3-1.4-5.4-.8-7 1.6-1 1.6-1.5 3.4-2.3 4.8-1.7 3.1-4.6 5-8.3 5-5.3 0-9.2-4.1-9.2-9.8 0-6.3 4.8-10.9 11.5-10.9 2.4 0 4.1-.5 5.2-1.7 1.4-1.5 1.8-3.9 1-5.8-1.2-2.7-4.5-1.9-7.2-1.9z"/>
</svg>
